<svg version="1" xmlns="http://www.w3.org/2000/svg" width="682.667" height="682.667" viewBox="0 0 512.000000 512.000000"><path d="M42.2 2c-7.3 2-16 6.3-19.6 9.7-1.4 1.3-3 2.3-3.6 2.3-.6 0-.8.4-.5 1 .3.5-.1 1-.9 1-.9 0-1.6.3-1.6.7 0 .5-1.6 2.6-3.5 4.8-1.9 2.2-3.5 4.4-3.5 4.9s-.7 1.7-1.5 2.6c-.8.9-2.7 4.7-4.2 8.6L.5 44.5l-.2 138C.1 312.6.2 320.9 1.9 327.1c2 7.6 7.6 18.1 12.1 22.9 1.6 1.8 3 3.6 3 4.1 0 .5.7.9 1.5.9s1.5.4 1.5.8c0 .9 7.4 5.9 12.5 8.5 10.1 5.1 9.2 5 82.5 5.3 37.7.1 68.7.3 69 .3.3.1.6 11.8.7 26.1.1 14.2.4 26.4.8 27 .3.5 0 1-.7 1-1 0-1 .2.1.9s1 1-.5 1.4c-1.1.3-34.5.5-74.4.5-50.4 0-74 .3-77.3 1.1-14.5 3.4-26.7 15.1-31 29.9C-.8 466.2 1 487 4.2 487c.4 0 .7.3.6.8-.7 2.6 11.8 17.2 14.8 17.2.7 0 1.4.5 1.6 1.1.2.5 1 1.1 1.8 1.3.8.1 2.4.7 3.5 1.3 6 3.2 12.1 3.3 231.3 3.2 215.9-.1 218.8-.1 224.6-2.1 3.3-1.1 8-3.3 10.4-5 4.8-3.3 12.2-10.7 12.2-12.2 0-.5.7-1.7 1.6-2.7.8-.9 1.6-2.3 1.8-3.1.1-.7.5-1.9.9-2.5 1.1-1.7 1.6-4.6 2.3-12.3 1.1-12-4.5-26.3-13.3-33.8-5.8-4.9-5.8-4.9-9.9-7-3.4-1.7-5.2-2.3-11.4-3.9-.8-.2-34.7-.5-75.2-.6-40.5-.1-74-.5-74.4-.9-.6-.7-.7-5.5-.1-19.6.1-2.3-.2-4.2-.8-4.2-.7 0-.7-.3 0-.8.6-.4 1-6.9 1-16-.1-9.9.3-15.2 1-15.3.5 0 31.6-.2 69-.3 37.4-.2 68.8-.5 69.7-.8 1-.2 2.1-.7 2.4-1.1.4-.4 1.6-.7 2.6-.7 2.6 0 11.2-4.5 17.5-9.2 9.5-6.9 17.5-19.1 20.7-31.4 1.4-5.2 1.5-21.2 1.3-143.9-.2-130-.4-138.3-2-142.5-3.1-7.7-6.9-15-7.8-15-.5 0-.9-.6-.9-1.3 0-1.5-11.3-12.7-12.9-12.7-.6 0-1.1-.4-1.1-.8 0-1.1-5.1-3.9-12.7-7L467.5.5 258 .4C60.2.2 48.1.3 42.2 2z"/></svg>